HIERARCHY
ROOT hip
{
  OFFSET 0 0 0
  CHANNELS 6 Xposition Yposition Zposition Zrotation Yrotation Xrotation
  JOINT abdomen
  {
    OFFSET 0 20.6881 -0.73152
    CHANNELS 3 Zrotation Xrotation Yrotation
    JOINT chest
    {
      OFFSET 0 11.7043 -0.48768
      CHANNELS 3 Zrotation Xrotation Yrotation
      JOINT neck
      {
        OFFSET 0 22.1894 -2.19456
        CHANNELS 3 Zrotation Xrotation Yrotation
        JOINT head
        {
          OFFSET -0.24384 7.07133 1.2192
          CHANNELS 3 Zrotation Xrotation Yrotation
          JOINT leftEye
          {
            OFFSET 4.14528 8.04674 8.04672
            CHANNELS 3 Zrotation Xrotation Yrotation
            End Site
            {
              OFFSET 1 0 0
            }
          }
          JOINT rightEye
          {
            OFFSET -3.6576 8.04674 8.04672
            CHANNELS 3 Zrotation Xrotation Yrotation
            End Site
            {
              OFFSET 1 0 0
            }
          }
        }
      }
      JOINT rCollar
      {
        OFFSET -2.68224 19.2634 -4.8768
        CHANNELS 3 Zrotation Xrotation Yrotation
        JOINT rShldr
        {
          OFFSET -8.77824 -1.95073 1.46304
          CHANNELS 3 Zrotation Xrotation Yrotation
          JOINT rForeArm
          {
            OFFSET -28.1742 -1.7115 0.48768
            CHANNELS 3 Zrotation Xrotation Yrotation
            JOINT rHand
            {
              OFFSET -22.5879 0.773209 7.07136
              CHANNELS 3 Zrotation Xrotation Yrotation
              JOINT rThumb1
              {
                OFFSET -1.2192 -0.487915 3.41376
                CHANNELS 3 Zrotation Xrotation Yrotation
                JOINT rThumb2
                {
                  OFFSET -3.37035 -0.52449 3.41376
                  CHANNELS 3 Zrotation Xrotation Yrotation
                  End Site
                  {
                    OFFSET -1.78271 -1.18214 1.43049
                  }
                }
              }
              JOINT rIndex1
              {
                OFFSET -7.75947 0.938293 5.60832
                CHANNELS 3 Zrotation Xrotation Yrotation
                JOINT rIndex2
                {
                  OFFSET -2.54057 -0.884171 1.56538
                  CHANNELS 3 Zrotation Xrotation Yrotation
                  End Site
                  {
                    OFFSET -1.62519 -0.234802 1.16502
                  }
                }
              }
              JOINT rMid1
              {
                OFFSET -8.24714 1.18213 3.41376
                CHANNELS 3 Zrotation Xrotation Yrotation
                JOINT rMid2
                {
                  OFFSET -3.10165 -0.590103 1.0647
                  CHANNELS 3 Zrotation Xrotation Yrotation
                  End Site
                  {
                    OFFSET -2.48547 -0.328903 0.83742
                  }
                }
              }
              JOINT rRing1
              {
                OFFSET -8.82822 0.546677 1.51678
                CHANNELS 3 Zrotation Xrotation Yrotation
                JOINT rRing2
                {
                  OFFSET -2.60934 -0.819778 -0.0198488
                  CHANNELS 3 Zrotation Xrotation Yrotation
                  End Site
                  {
                    OFFSET -2.33842 -0.294052 0.168128
                  }
                }
              }
              JOINT rPinky1
              {
                OFFSET -8.27202 -0.0477905 -0.4584
                CHANNELS 3 Zrotation Xrotation Yrotation
                JOINT rPinky2
                {
                  OFFSET -1.82734 -0.647385 -0.700984
                  CHANNELS 3 Zrotation Xrotation Yrotation
                  End Site
                  {
                    OFFSET -1.69225 -0.51767 -0.607171
                  }
                }
              }
            }
          }
        }
      }
      JOINT lCollar
      {
        OFFSET 2.68224 19.2634 -4.8768
        CHANNELS 3 Zrotation Xrotation Yrotation
        JOINT lShldr
        {
          OFFSET 8.77824 -1.95073 1.46304
          CHANNELS 3 Zrotation Xrotation Yrotation
          JOINT lForeArm
          {
            OFFSET 28.1742 -1.7115 0.48768
            CHANNELS 3 Zrotation Xrotation Yrotation
            JOINT lHand
            {
              OFFSET 22.5879 0.773209 7.07136
              CHANNELS 3 Zrotation Xrotation Yrotation
              JOINT lThumb1
              {
                OFFSET 1.2192 -0.487915 3.41376
                CHANNELS 3 Zrotation Xrotation Yrotation
                JOINT lThumb2
                {
                  OFFSET 3.37035 -0.52449 3.41376
                  CHANNELS 3 Zrotation Xrotation Yrotation
                  End Site
                  {
                    OFFSET 1.78271 -1.18214 1.43049
                  }
                }
              }
              JOINT lIndex1
              {
                OFFSET 7.75947 0.938293 5.60832
                CHANNELS 3 Zrotation Xrotation Yrotation
                JOINT lIndex2
                {
                  OFFSET 2.54057 -0.884171 1.56538
                  CHANNELS 3 Zrotation Xrotation Yrotation
                  End Site
                  {
                    OFFSET 1.62519 -0.234802 1.16502
                  }
                }
              }
              JOINT lMid1
              {
                OFFSET 8.24714 1.18213 3.41376
                CHANNELS 3 Zrotation Xrotation Yrotation
                JOINT lMid2
                {
                  OFFSET 3.10165 -0.590103 1.0647
                  CHANNELS 3 Zrotation Xrotation Yrotation
                  End Site
                  {
                    OFFSET 2.48547 -0.328903 0.83742
                  }
                }
              }
              JOINT lRing1
              {
                OFFSET 8.82822 0.546677 1.51678
                CHANNELS 3 Zrotation Xrotation Yrotation
                JOINT lRing2
                {
                  OFFSET 2.60934 -0.819778 -0.0198488
                  CHANNELS 3 Zrotation Xrotation Yrotation
                  End Site
                  {
                    OFFSET 2.33842 -0.294052 0.168128
                  }
                }
              }
              JOINT lPinky1
              {
                OFFSET 8.27202 -0.0477905 -0.4584
                CHANNELS 3 Zrotation Xrotation Yrotation
                JOINT lPinky2
                {
                  OFFSET 1.82734 -0.647385 -0.700984
                  CHANNELS 3 Zrotation Xrotation Yrotation
                  End Site
                  {
                    OFFSET 1.69225 -0.51767 -0.607171
                  }
                }
              }
            }
          }
        }
      }
    }
  }
  JOINT rButtock
  {
    OFFSET -8.77824 4.35084 1.2192
    CHANNELS 3 Zrotation Xrotation Yrotation
    JOINT rThigh
    {
      OFFSET 0 -1.70687 -2.19456
      CHANNELS 3 Zrotation Xrotation Yrotation
      JOINT rShin
      {
        OFFSET 0 -36.8199 0.73152
        CHANNELS 3 Zrotation Xrotation Yrotation
        JOINT rFoot
        {
          OFFSET 0.73152 -45.1104 -5.12064
          CHANNELS 3 Zrotation Xrotation Yrotation
          End Site
          {
            OFFSET -1.1221 -3.69964 12.103
          }
        }
      }
    }
  }
  JOINT lButtock
  {
    OFFSET 8.77824 4.35084 1.2192
    CHANNELS 3 Zrotation Xrotation Yrotation
    JOINT lThigh
    {
      OFFSET 0 -1.70687 -2.19456
      CHANNELS 3 Zrotation Xrotation Yrotation
      JOINT lShin
      {
        OFFSET 0 -36.8199 0.73152
        CHANNELS 3 Zrotation Xrotation Yrotation
        JOINT lFoot
        {
          OFFSET -0.73152 -45.1104 -5.12064
          CHANNELS 3 Zrotation Xrotation Yrotation
          End Site
          {
            OFFSET 1.1221 -3.69964 12.103
          }
        }
      }
    }
  }
}
MOTION
Frames:	4
Frame Time:	0.03333
2.6559611782431602 67.28280782699585 3.0913008376955986 0.3372591733932495 12.129493713378906 5.9043121337890625 -9.894948959350586 8.038187980651855 -10.891242027282715 8.468345642089844 -6.4954938888549805 -2.774918794631958 -9.629632949829102 24.408849716186523 -19.378416061401367 19.82129669189453 -22.577980041503906 -34.863311767578125 0.03492169827222824 -0.026101429015398026 -0.030507007613778114 -0.04672598838806152 -0.010915008373558521 0.036024872213602066 -0.03302564471960068 0.018228517845273018 -0.02813527174293995 64.079833984375 37.1517219543457 -2.0803964138031006 -17.800867080688477 -10.353358268737793 33.54025650024414 -0.15885129570960999 2.153958320617676 0.10997616499662399 0.011123189702630043 -0.07922213524580002 -0.02462615631520748 0.0757826492190361 -0.03566092252731323 0.010873754508793354 -0.05827716365456581 -0.08868855983018875 -0.03512304648756981 7.783790111541748 5.477119445800781 0.42373237013816833 0.04206737503409386 -0.0792250707745552 -0.07783863693475723 2.8931474685668945 0.9466731548309326 0.0026152131613343954 0.05138246342539787 0.014413679949939251 -0.04953945428133011 10.213828086853027 0.5814380645751953 0.14583605527877808 0.0313541479408741 -0.08551927655935287 -0.06870057433843613 2.2719526290893555 -0.7040813565254211 -0.21195147931575775 -0.010229402221739292 -0.05706660449504852 0.0362042561173439 -72.8569107055664 32.32861328125 -8.690300941467285 16.767942428588867 -9.288997650146484 -30.875858306884766 -0.05709070339798927 8.31895637512207 -1.3927804231643677 -0.025747541338205338 0.006300604436546564 -0.06345752626657486 0.009318040683865547 -0.007528078742325306 0.01603928953409195 0.12101981043815613 0.02030188776552677 -0.024371717125177383 -7.784247875213623 5.5770368576049805 -0.4211414158344269 0.09738113731145859 -0.014287818223237991 0.0658457800745964 -2.7542977333068848 0.9845368266105652 -0.08690193295478821 0.011008890345692635 0.11927342414855957 -0.10117043554782867 -10.379573822021484 0.7496877908706665 -0.04534093290567398 -0.009836570359766483 0.012624328024685383 -0.017551416531205177 -2.2985880374908447 -0.7613446712493896 0.20284044742584229 0.004861301742494106 0.031240371987223625 0.07812229543924332 -35.13865280151367 -64.08930206298828 -31.252893447875977 -2.2911946773529053 69.66606903076172 3.1797385215759277 2.5037119388580322 -4.962706089019775 14.458535194396973 -0.011327776126563549 -0.012752540409564972 0.11186967045068741 4.310154438018799 9.16388988494873 3.862938404083252 -0.20145802199840546 35.7934455871582 -1.9776991605758667 23.70323371887207 -20.64080238342285 43.0173225402832
2.624486479908228 67.78446435928345 3.1230163760483265 0.22200319170951843 12.2457857131958 5.874696731567383 -9.876028060913086 7.976008892059326 -11.029074668884277 8.364402770996094 -6.481174945831299 -2.6911473274230957 -9.581474304199219 24.535154342651367 -19.267963409423828 19.650068283081055 -22.47211265563965 -34.904632568359375 0.06920595467090607 -0.03921118006110191 -0.009216631762683392 -0.06476795673370361 -0.008595182560384274 0.005144946742802858 -0.06705895811319351 0.016439832746982574 -0.001537084812298417 63.8775749206543 37.18589782714844 -1.9259474277496338 -17.788118362426758 -10.296170234680176 33.56394577026367 -0.1422581523656845 2.402155876159668 0.1762835681438446 0.008677639998495579 -0.11492583900690079 -0.04328035190701485 0.038818519562482834 -0.05857094004750252 -0.005073310807347298 -0.035005226731300354 -0.09498292952775955 -0.03087325021624565 7.765554428100586 5.487958908081055 0.40568074584007263 0.08281677216291428 -0.07057525962591171 -0.06460154056549072 2.9111897945404053 0.9303492903709412 0.02803564816713333 0.037227217108011246 -0.012796246446669102 -0.058222945779561996 10.205718040466309 0.6146537065505981 0.15012137591838837 0.017412597313523293 -0.11231862753629684 -0.05654929578304291 2.1986026763916016 -0.6962085366249084 -0.22236168384552002 -0.0016335806576535106 -0.04064828157424927 0.03785545378923416 -72.4511947631836 32.43772506713867 -9.06208324432373 16.540773391723633 -9.156278610229492 -30.46543312072754 -0.14770424365997314 8.24604320526123 -1.3525949716567993 -0.002118860138580203 0.03504938632249832 -0.09073473513126373 0.0029139758553355932 -8.033456833800301e-05 0.03697044402360916 0.1188039481639862 0.03614901378750801 -0.028560055419802666 -7.801954746246338 5.567121505737305 -0.4200904369354248 0.07693199813365936 0.001669757068157196 0.1056675985455513 -2.7953526973724365 0.9940590858459473 -0.1107342317700386 0.028697237372398376 0.09839150309562683 -0.09317869693040848 -10.396065711975098 0.7598244547843933 -0.03674415126442909 -0.012395855970680714 -0.019151918590068817 -0.03448507562279701 -2.29416823387146 -0.7898871302604675 0.1788439303636551 0.015867119655013084 0.029304036870598793 0.10295489430427551 -35.094051361083984 -63.788448333740234 -31.133302688598633 -2.3701133728027344 69.24339294433594 3.341059684753418 2.5537571907043457 -4.6878156661987305 14.364143371582031 0.009701495990157127 -0.012817022390663624 0.08972838521003723 4.209299087524414 9.012733459472656 3.9537644386291504 -0.267106294631958 36.34009552001953 -1.8188999891281128 23.791912078857422 -20.480653762817383 42.956573486328125
2.595879975706339 67.08133816719055 3.190719522535801 0.12093164771795273 12.232279777526855 5.7531232833862305 -9.74085807800293 7.790019989013672 -10.857609748840332 8.352530479431152 -6.45957088470459 -2.763568162918091 -9.5978364944458 24.549301147460938 -19.304433822631836 19.78177833557129 -22.371355056762695 -34.78213882446289 0.04897991940379143 -0.04477975144982338 -0.025281626731157303 -0.04403052479028702 0.010626005008816719 -0.0059185270220041275 -0.08361664414405823 0.011101535521447659 -0.00903076957911253 64.09811401367188 36.7754020690918 -2.0089619159698486 -17.798770904541016 -10.281086921691895 33.34077072143555 -0.062490157783031464 2.709182024002075 0.17773224413394928 0.015659045428037643 -0.08681374788284302 -0.025441450998187065 -0.00586774991825223 -0.04413521662354469 -0.020681334659457207 -0.042582519352436066 -0.0898137241601944 -0.0039027284365147352 7.758028984069824 5.476032257080078 0.4224310517311096 0.03262198716402054 -0.0922551229596138 -0.07823056727647781 2.9619269371032715 0.9164363741874695 0.022139986976981163 0.00015824512229301035 -0.03579743951559067 -0.06277510523796082 10.2008695602417 0.6004976034164429 0.14445219933986664 0.005726075731217861 -0.07866104692220688 -0.028836194425821304 2.2018938064575195 -0.6438261866569519 -0.22244508564472198 -0.01255815103650093 0.01771252043545246 0.07462094724178314 -72.49274444580078 32.31355667114258 -8.671436309814453 16.68132972717285 -9.382326126098633 -30.846376419067383 -0.16146127879619598 7.983887195587158 -1.3532410860061646 -0.01133639831095934 0.05065975338220596 -0.04202444851398468 -0.0565657913684845 0.00922753568738699 0.008038666099309921 0.07308153063058853 0.050247471779584885 -0.036818504333496094 -7.769880294799805 5.526702404022217 -0.4483213722705841 0.04474305361509323 0.004443951416760683 0.07582171261310577 -2.8443992137908936 0.958217203617096 -0.08773037791252136 0.03150228410959244 0.08799020946025848 -0.07946543395519257 -10.333231925964355 0.7703540325164795 -0.06788133829832077 -0.036978378891944885 -0.03583766892552376 -0.007325586397200823 -2.2711827754974365 -0.7830771207809448 0.2273888736963272 0.05087271332740784 0.0019969732966274023 0.10727965086698532 -35.25687789916992 -63.58621597290039 -31.46200942993164 -2.438502073287964 69.25236511230469 3.259286880493164 2.6073315143585205 -5.170823574066162 14.340046882629395 -0.016638685017824173 -0.03572768718004227 0.061800964176654816 4.210846900939941 8.995247840881348 3.696458578109741 -0.24240846931934357 36.190147399902344 -1.8339073657989502 23.94072723388672 -20.459543228149414 43.16391372680664
2.5999778881669044 66.574227809906 3.2751934602856636 0.24310387670993805 12.318578720092773 5.774985313415527 -9.735675811767578 7.61935567855835 -10.461217880249023 8.286426544189453 -6.5117316246032715 -2.7348668575286865 -9.576333045959473 24.16805076599121 -19.242639541625977 20.027616500854492 -22.674959182739258 -34.45368957519531 0.016057828441262245 -0.057257190346717834 -0.06894043833017349 -0.020205171778798103 0.017270520329475403 0.014501480385661125 -0.054345156997442245 0.046676572412252426 -0.02780301496386528 64.57026672363281 36.71434783935547 -2.2252118587493896 -17.617368698120117 -10.227347373962402 32.90309143066406 -0.01709640771150589 2.608689546585083 0.15077528357505798 -0.006773649714887142 -0.058112386614084244 0.008928991854190826 -0.01047168392688036 -0.04722943902015686 -0.0013948815176263452 -0.037601158022880554 -0.06743412464857101 0.04942227527499199 7.748367786407471 5.431406497955322 0.4430229663848877 -0.00019798417633865029 -0.09424316883087158 -0.0683668777346611 2.9817748069763184 0.9196354746818542 0.020712878555059433 -0.0012872288934886456 0.014014894142746925 -0.04028851166367531 10.20645809173584 0.6141992211341858 0.11686157435178757 -0.020233508199453354 -0.07959415763616562 -0.022047540172934532 2.2309844493865967 -0.6217513084411621 -0.23192137479782104 -0.015152462758123875 0.027361376211047173 0.0649508461356163 -72.837646484375 32.51044845581055 -7.928357124328613 17.023012161254883 -9.620973587036133 -31.49276351928711 -0.18660831451416016 8.019243240356445 -1.35657799243927 -0.00045830351882614195 -0.002950564492493868 -0.0030787012074142694 -0.06575043499469757 -0.001635560765862465 0.026828132569789886 0.0276655163615942 0.030748452991247177 -0.06553501635789871 -7.755292892456055 5.464644908905029 -0.41842591762542725 0.029018033295869827 0.010418612509965897 0.07933755964040756 -2.869352102279663 0.9245527982711792 -0.07945393025875092 0.019550513476133347 0.08379140496253967 -0.08973231166601181 -10.267818450927734 0.7414717078208923 -0.10854196548461914 -0.041219089180231094 -0.015253125689923763 0.014091497287154198 -2.238111972808838 -0.7459713816642761 0.22527946531772614 0.03144378960132599 -0.025844527408480644 0.0738048329949379 -34.90976333618164 -63.58970260620117 -31.255338668823242 -2.4067797660827637 69.4568099975586 3.0886154174804688 2.5976202487945557 -5.9268951416015625 14.45134449005127 0.0023116793017834425 -0.003074796637520194 0.020116327330470085 4.459549427032471 8.880403518676758 3.5158510208129883 -0.1413157880306244 36.22499084472656 -1.9700610637664795 23.516096115112305 -20.583995819091797 42.96177291870117
